#!OML:ASF E:\emotionWalksFemale\Project 1\Capture day 1\Session 1\Female1.ASF
:FULLY-SPECIFIED
:DEGREES
478
root 5.20976 15.488 20.9412 19.7143 87.562 -697.367
lowerback 8.38133 0.901724 1.42425
upperback -5.67061 1.52854 0.657196
thorax -10.7828 0.683942 -0.366554
lowerneck -6.9885 -1.85745 -7.76706
upperneck 14.3244 -2.10931 4.81212
head 5.60246 -1.05197 2.65292
rclavicle -1.41137e-014 -3.97569e-015
rhumerus -45.7254 15.3678 -93.2464
rradius 33.0153
rwrist 23.3855
rhand 1.3386 -54.0651
rfingers 7.12502
rthumb 26.8719 637.825
lclavicle -1.41137e-014 -3.97569e-015
lhumerus -45.8907 1.95985 85.8094
lradius 29.0879
lwrist -19.411
lhand -1.22017 -35.6741
lfingers 7.12502
lthumb 24.4212 -7.21056
rfemur 2.2133 21.4111 26.6495
rtibia 16.7558
rfoot -16.4096 -28.4062
rtoes -19.5348
lfemur -0.472619 -23.9975 -26.221
ltibia 20.0617
lfoot -24.4504 25.5032
ltoes -21.7618
479
root 5.2135 15.4876 20.9412 21.5144 87.6509 -695.564
lowerback 8.32337 0.926913 1.48784
upperback -5.65237 1.56437 0.611336
thorax -10.724 0.694916 -0.4564
lowerneck -6.99383 -1.9207 -7.75524
upperneck 14.3662 -2.19398 4.79626
head 5.62182 -1.09358 2.64017
rclavicle -1.80894e-014 -2.38542e-015
rhumerus -45.7409 15.2344 -93.2624
rradius 33.1007
rwrist 23.7951
rhand 1.51022 -54.1398
rfingers 7.12502
rthumb 27.0361 637.775
lclavicle -1.80894e-014 -2.38542e-015
lhumerus -45.852 1.62921 86.0815
lradius 29.0949
lwrist -19.258
lhand -1.35373 -35.437
lfingers 7.12502
lthumb 24.2931 -6.9563
rfemur 2.27136 21.5224 26.6563
rtibia 16.7379
rfoot -16.09 -28.5432
rtoes -19.7359
lfemur -0.380204 -24.4828 -26.3578
ltibia 20.0288
lfoot -24.6566 25.6971
ltoes -20.7451
480
root 5.21505 15.4886 20.9416 24.7589 87.7832 -692.347
lowerback 8.30918 0.913761 1.47703
upperback -5.66937 1.54238 0.577574
thorax -10.7341 0.683663 -0.482708
lowerneck -6.99808 -1.95623 -7.71583
upperneck 14.4381 -2.24496 4.78481
head 5.64776 -1.11685 2.62693
rclavicle 4.96962e-016 2.38542e-015
rhumerus -45.7339 15.0687 -93.2869
rradius 33.1284
rwrist 23.8026
rhand 1.56833 -53.4175
rfingers 7.12502
rthumb 27.0917 638.506
lclavicle 4.96962e-016 2.38542e-015
lhumerus -45.7862 1.92423 85.9317
lradius 28.9198
lwrist -19.8388
lhand -1.35681 -35.716
lfingers 7.12502
lthumb 24.2902 -7.23491
rfemur 2.24468 21.6272 26.6126
rtibia 16.7852
rfoot -15.9501 -28.627
rtoes -19.5795
lfemur -0.409904 -24.4374 -26.3831
ltibia 19.9567
lfoot -24.402 25.5317
ltoes -21.2857
481
root 5.21534 15.4898 20.9409 27.952 87.8902 -689.185
lowerback 8.34088 0.893715 1.4457
upperback -5.69969 1.51292 0.573891
thorax -10.7882 0.671305 -0.464946
lowerneck -6.97343 -1.9684 -7.70945
upperneck 14.48 -2.26582 4.80076
head 5.65801 -1.12548 2.62994
rclavicle -4.47266e-015 -1.03368e-014
rhumerus -45.6821 14.8862 -93.2682
rradius 33.1032
rwrist 23.8478
rhand 1.65972 -53.2964
rfingers 7.12502
rthumb 27.1791 638.641
lclavicle -4.47266e-015 -1.03368e-014
lhumerus -45.7489 2.29025 85.7698
lradius 28.6987
lwrist -20.4583
lhand -1.35086 -36.0333
lfingers 7.12502
lthumb 24.2959 -7.55291
rfemur 2.19327 21.5788 26.5321
rtibia 16.8378
rfoot -16.0328 -28.5312
rtoes -18.8568
lfemur -0.493029 -24.0288 -26.339
ltibia 19.8811
lfoot -23.8429 25.2407
ltoes -23.1328
482
root 5.21772 15.4888 20.9404 30.9261 88.0047 -686.25
lowerback 8.30663 0.872045 1.41611
upperback -5.70505 1.48177 0.594396
thorax -10.7754 0.659842 -0.420292
lowerneck -6.97181 -1.98697 -7.77143
upperneck 14.4583 -2.28951 4.84231
head 5.65371 -1.13752 2.6515
rclavicle 2.78299e-015 -6.36111e-015
rhumerus -45.6476 14.8021 -93.2699
rradius 33.1446
rwrist 23.8978
rhand 1.53684 -53.7707
rfingers 7.12502
rthumb 27.0616 638.148
lclavicle 2.78299e-015 -6.36111e-015
lhumerus -45.7565 2.18 85.9074
lradius 28.6589
lwrist -20.4262
lhand -1.31213 -36.1807
lfingers 7.12502
lthumb 24.333 -7.7053
rfemur 2.2034 21.5805 26.4977
rtibia 16.8029
rfoot -16.136 -28.5085
rtoes -17.9842
lfemur -0.614838 -23.7551 -26.2974
ltibia 19.9235
lfoot -23.5307 24.9841
ltoes -24.1575
483
root 5.21975 15.4872 20.9367 35.5327 88.1203 -681.743
lowerback 8.22686 0.812299 1.41719
upperback -5.71997 1.39969 0.582426
thorax -10.7449 0.620436 -0.418229
lowerneck -6.98137 -1.98706 -7.85076
upperneck 14.4074 -2.29539 4.95132
head 5.64166 -1.13715 2.69839
rclavicle -2.52457e-014 -2.0276e-014
rhumerus -45.6553 14.8258 -93.3628
rradius 33.2718
rwrist 23.9157
rhand 1.36018 -54.0413
rfingers 7.12502
rthumb 26.8925 637.852
lclavicle -2.52457e-014 -2.0276e-014
lhumerus -45.7823 1.92789 86.1104
lradius 28.7663
lwrist -20.0769
lhand -1.0677 -36.293
lfingers 7.12502
lthumb 24.5673 -7.84922
rfemur 2.07165 21.6531 26.378
rtibia 16.8237
rfoot -16.0865 -28.6512
rtoes -17.5993
lfemur -0.744586 -23.7804 -26.3144
ltibia 19.8891
lfoot -23.5938 24.7243
ltoes -23.4082
